<svg width="170" height="50" viewBox="0 0 170 50" xmlns="http://www.w3.org/2000/svg" xmlns:xlink="http://www.w3.org/1999/xlink">
    <defs>
        <path id="1byn5nkp9a" d="M0 0h138v30H0z"/>
    </defs>
    <g fill="none" fill-rule="evenodd">
        <path fill="#FFF" d="M-166-27h1440V85H-166z"/>
        <g>
            <g transform="translate(0 20)">
                <mask id="8v8rroldwb" fill="#fff">
                    <use xlink:href="#1byn5nkp9a"/>
                </mask>
                <path d="M10.154 25.414c1.032 0 1.873-.242 2.522-.726.648-.484 1.13-1.184 1.45-2.098.316-.914.476-2.003.476-3.268v-.726c0-.94-.087-1.8-.258-2.582-.173-.779-.444-1.431-.815-1.956a3.778 3.778 0 0 0-1.39-1.21c-.556-.282-1.217-.423-1.985-.423-1.112 0-2 .221-2.661.665-.662.444-1.139 1.116-1.43 2.017-.29.902-.436 2.024-.436 3.368v.928c0 1.345.145 2.46.437 3.349.29.887.767 1.553 1.429 1.996.661.444 1.549.666 2.66.666zm-1.748 4.599c-1.721 0-3.21-.398-4.467-1.19-1.258-.793-2.231-2.01-2.92-3.651-.688-1.64-1.032-3.738-1.032-6.293s.351-4.645 1.053-6.273c.702-1.627 1.668-2.83 2.899-3.61 1.231-.78 2.654-1.17 4.269-1.17.9 0 1.74.101 2.522.302a6.1 6.1 0 0 1 2.065.948c.595.43 1.105.955 1.529 1.574h.238V.363h5.52V29.53h-4.528l-.436-2.865h-.278c-.689 1.13-1.589 1.97-2.7 2.521-1.113.551-2.357.828-3.734.828zM29.422 16.62h8.816c0-.807-.1-1.506-.298-2.098-.199-.591-.47-1.075-.814-1.452a3.08 3.08 0 0 0-1.251-.827 4.888 4.888 0 0 0-1.649-.263c-1.005 0-1.846.169-2.52.505a3.444 3.444 0 0 0-1.55 1.533c-.357.686-.603 1.553-.734 2.602zm4.845 13.393c-2.304 0-4.236-.398-5.799-1.19-1.562-.793-2.74-2.01-3.534-3.651-.794-1.64-1.192-3.725-1.192-6.253 0-2.554.398-4.645 1.192-6.273.795-1.626 1.966-2.837 3.515-3.63 1.548-.793 3.448-1.19 5.699-1.19 2.117 0 3.904.383 5.36 1.15 1.456.766 2.555 1.95 3.296 3.55.741 1.6 1.112 3.664 1.112 6.192v1.452H29.342c.053 1.237.245 2.286.576 3.146.33.861.847 1.5 1.548 1.916.702.418 1.635.626 2.8.626.636 0 1.211-.08 1.728-.243.517-.16.96-.403 1.33-.725.37-.323.662-.726.874-1.21.211-.485.318-1.035.318-1.655h5.4c0 1.345-.238 2.515-.715 3.51a6.819 6.819 0 0 1-1.985 2.48c-.847.66-1.86 1.157-3.038 1.493-1.179.336-2.482.505-3.911.505zM48.686 29.529V12.626h-2.978V8.31h2.978V5.97c0-1.156.192-2.184.575-3.086.384-.9 1-1.607 1.847-2.118C51.955.256 53.08 0 54.483 0c.398 0 .815.027 1.251.08.437.055.861.128 1.271.223.41.094.761.194 1.053.302v3.711h-1.986c-.635 0-1.105.161-1.41.484-.304.323-.456.794-.456 1.412V8.31h3.852v4.316h-3.852v16.903h-5.52M68.041 25.777c.741 0 1.404-.114 1.986-.343a4.316 4.316 0 0 0 1.469-.928 4.1 4.1 0 0 0 .934-1.432c.224-.565.337-1.17.337-1.815v-1.17c-1.483 0-2.807.1-3.971.302-1.165.202-2.085.545-2.76 1.03-.675.484-1.012 1.156-1.012 2.016 0 .484.119.902.356 1.25.24.35.583.62 1.034.808.45.188.992.282 1.627.282zm-1.866 4.236c-.69 0-1.424-.081-2.204-.243a6.922 6.922 0 0 1-2.204-.867c-.689-.416-1.251-1.022-1.687-1.815-.438-.793-.656-1.809-.656-3.046 0-1.478.318-2.702.953-3.67.635-.969 1.542-1.728 2.72-2.28 1.178-.55 2.588-.934 4.23-1.15 1.641-.215 3.455-.322 5.44-.322v-1.573c0-.619-.099-1.156-.298-1.614-.199-.457-.543-.82-1.032-1.09-.49-.268-1.172-.402-2.045-.402-.874 0-1.583.107-2.125.322-.543.216-.927.491-1.151.827a1.95 1.95 0 0 0-.338 1.11v.484h-5.361a1.955 1.955 0 0 1-.04-.384v-.464c0-1.236.37-2.305 1.112-3.207.74-.9 1.787-1.593 3.137-2.077s2.926-.726 4.726-.726c1.932 0 3.554.256 4.864.766 1.31.511 2.317 1.265 3.019 2.259.7.996 1.052 2.246 1.052 3.752v9.64c0 .485.14.842.417 1.07.278.229.589.343.933.343h1.31v3.67c-.264.136-.674.276-1.23.424-.556.148-1.231.222-2.026.222-.768 0-1.45-.114-2.044-.343a3.982 3.982 0 0 1-1.49-.968 3.454 3.454 0 0 1-.834-1.512h-.278c-.45.564-1 1.062-1.648 1.492-.649.43-1.403.767-2.264 1.009-.86.241-1.846.363-2.958.363zM83.496 29.529V.323h5.52v16.821l7.308-8.834h6.473l-7.148 8.31 7.505 12.909H96.84l-4.804-8.956-3.018 2.985v5.97h-5.52M112.84 30.013c-1.325 0-2.397-.243-3.217-.727-.82-.484-1.417-1.135-1.787-1.956-.37-.82-.556-1.728-.556-2.723V12.626h-2.581V8.31h2.78l1.032-6.051h4.288v6.05h3.812v4.317H112.8v11.053c0 .646.146 1.137.437 1.473.292.336.768.504 1.43.504h1.945v3.711c-.317.108-.688.209-1.111.303-.424.093-.874.174-1.35.241a9.448 9.448 0 0 1-1.31.102M128.39 30.013c-1.457 0-2.767-.162-3.932-.484-1.164-.323-2.157-.773-2.978-1.352-.82-.578-1.45-1.27-1.886-2.078-.436-.806-.655-1.72-.655-2.743v-.322c0-.107.013-.188.04-.242h5.321v.322c.026.673.238 1.218.635 1.634.398.418.92.72 1.569.908.648.188 1.33.282 2.045.282.635 0 1.25-.06 1.847-.181.595-.121 1.098-.343 1.508-.666.41-.323.616-.74.616-1.25 0-.646-.258-1.143-.775-1.493-.515-.35-1.19-.631-2.024-.847-.834-.215-1.742-.457-2.72-.726a40.212 40.212 0 0 1-2.7-.747 10.408 10.408 0 0 1-2.443-1.109 5.396 5.396 0 0 1-1.768-1.795c-.45-.74-.675-1.674-.675-2.804 0-1.102.238-2.063.715-2.884a5.982 5.982 0 0 1 1.965-2.037c.834-.537 1.814-.934 2.94-1.19a16.379 16.379 0 0 1 3.633-.383c1.218 0 2.356.128 3.416.383 1.058.256 1.985.632 2.78 1.13.793.497 1.415 1.116 1.866 1.855.45.74.675 1.567.675 2.48v.526c0 .16-.014.268-.04.322h-5.281V14.2c0-.484-.147-.894-.437-1.231-.292-.336-.709-.598-1.251-.786-.544-.188-1.199-.283-1.966-.283-.53 0-1.013.04-1.45.121-.437.08-.813.202-1.132.363a2.074 2.074 0 0 0-.734.585 1.334 1.334 0 0 0-.258.827c0 .458.192.827.575 1.11.384.282.894.518 1.53.705.635.189 1.336.39 2.104.605.953.27 1.953.532 2.999.787 1.045.256 2.018.599 2.918 1.029.9.43 1.628 1.042 2.184 1.835.556.794.834 1.863.834 3.207 0 1.291-.245 2.38-.734 3.268a5.715 5.715 0 0 1-2.046 2.138c-.873.538-1.893.928-3.058 1.17a18.553 18.553 0 0 1-3.772.363" fill="#1A1919" mask="url(#8v8rroldwb)"/>
            </g>
            <path fill="#DE4B31" d="M148 28h-6v-6h2.689v3.31H148V28M170 6h-2.689V2.689H164V0h6v6M144.689 6H142V0h6v2.689h-3.311V6M170 28h-6v-2.69h3.311V22H170v6M152 19h9v-9h-9z"/>
        </g>
    </g>
</svg>
